<svg width="140" height="53" viewBox="0 0 140 53" fill="none" xmlns="http://www.w3.org/2000/svg">
<path d="M0 14.5421V37.6766H25.3101V28.6425H10.3278V23.5755H25.3101V14.5421H0ZM0 9.11651H25.3101V0.0815735H0V9.11651Z" fill="white"/>
<path d="M51.0758 0.0815735L38.6663 14.5706V23.6101L51.2274 37.6766H63.9764L48.046 18.8148L63.9448 0.0815735H51.0758Z" fill="white"/>
<mask id="mask0_8_104" style="mask-type:luminance" maskUnits="userSpaceOnUse" x="0" y="0" width="140" height="53">
<path d="M140 0H0V52.2587H140V0Z" fill="white"/>
</mask>
<g mask="url(#mask0_8_104)">
<path d="M107.667 0.0815735H120.089C125.413 0.0815735 129.71 1.41321 132.98 4.07649C135.494 6.1068 137.44 8.75438 138.626 11.7608C139.54 14.0563 140.008 16.5054 140.003 18.9764C140.061 23.5586 138.389 27.9941 135.321 31.3976C133.376 33.6987 130.858 35.4464 128.022 36.4645C125.317 37.3262 122.488 37.7357 119.65 37.6766H107.667V23.6509L117.995 14.4444V28.8356C119.555 28.8343 121.11 28.6399 122.622 28.2569C123.775 27.9089 124.843 27.3276 125.762 26.5492C126.873 25.631 127.755 24.4663 128.337 23.1476C128.96 21.806 129.284 20.3449 129.287 18.8656C129.283 17.3831 128.95 15.92 128.309 14.5829C127.699 13.2503 126.789 12.0768 125.651 11.1536C124.73 10.418 123.665 9.88328 122.525 9.58365C121.032 9.23588 119.5 9.07866 117.968 9.11574H107.667V0.0815735Z" fill="white"/>
<path d="M82.8544 37.682C79.128 37.682 75.4853 36.577 72.3869 34.5067C69.2885 32.4364 66.8736 29.4938 65.4475 26.051C64.0215 22.6082 63.6485 18.8199 64.3755 15.165C65.1026 11.5102 66.8971 8.15307 69.5321 5.51814C72.1671 2.88321 75.5244 1.08884 79.1792 0.361939C82.8341 -0.364958 86.6224 0.0082664 90.0651 1.43442C93.5078 2.86056 96.4503 5.27558 98.5205 8.37407C100.591 11.4726 101.696 15.1154 101.695 18.8418C101.69 23.8368 99.7026 28.6256 96.1705 32.1576C92.6384 35.6896 87.8495 37.6763 82.8544 37.682ZM82.8544 10.5018C81.2051 10.5018 79.5928 10.9909 78.2214 11.9072C76.85 12.8235 75.7812 14.1259 75.15 15.6497C74.5188 17.1735 74.3537 18.8503 74.6754 20.4679C74.9972 22.0856 75.7914 23.5715 76.9577 24.7377C78.124 25.904 79.6099 26.6982 81.2275 27.02C82.8452 27.3418 84.5219 27.1766 86.0457 26.5455C87.5695 25.9143 88.8719 24.8454 89.7883 23.474C90.7046 22.1027 91.1937 20.4904 91.1937 18.841C91.191 16.6301 90.3116 14.5105 88.7482 12.9472C87.1849 11.3839 85.0653 10.5044 82.8544 10.5018Z" fill="white"/>
<path d="M38.5301 0.0808105H31.0358V9.11421H38.5301V0.0808105Z" fill="white"/>
<path d="M31.0097 28.6432H38.5563V37.6767H31.0097V28.6432Z" fill="white"/>
<path d="M0.124634 52.1602V46.4353H1.28979V51.1852H4.18574V52.1602H0.124634Z" fill="white"/>
<path d="M5.00457 46.4037H6.11046V47.1949C6.11815 47.4499 6.09017 47.7048 6.02735 47.9521C5.96877 48.1425 5.86099 48.3139 5.7149 48.4493C5.54701 48.6049 5.34788 48.723 5.13078 48.7956L4.91376 48.3392C5.09991 48.2899 5.26627 48.1842 5.39013 48.0368C5.49312 47.8806 5.54552 47.6966 5.5402 47.5096H5.00149L5.00457 46.4037Z" fill="white"/>
<path d="M7.28101 52.1556V46.3837H11.5576V47.3595H8.44308V48.6386H11.339V49.6106H8.44308V51.1813H11.6676V52.1525L7.28101 52.1556ZM8.76015 46.0566L9.30348 44.8807H10.5425L9.45816 46.0574L8.76015 46.0566Z" fill="white"/>
<path d="M16.3613 50.0362L17.4903 50.3948C17.3674 50.9454 17.0637 51.4391 16.6276 51.797C16.1823 52.1173 15.6428 52.2799 15.0946 52.2587C14.7418 52.2693 14.3909 52.2045 14.0652 52.0686C13.7395 51.9327 13.4466 51.7289 13.206 51.4707C12.6877 50.8798 12.4219 50.1091 12.4657 49.3243C12.4153 48.5108 12.6817 47.7094 13.2091 47.0879C13.4593 46.823 13.7634 46.6148 14.1009 46.4774C14.4383 46.34 14.8013 46.2766 15.1654 46.2914C15.7986 46.2648 16.4166 46.4897 16.8846 46.917C17.1738 47.2111 17.3775 47.5782 17.4742 47.9791L16.3198 48.2538C16.2662 47.9739 16.1141 47.7224 15.891 47.5451C15.6679 47.3677 15.3886 47.2762 15.1038 47.2872C14.9067 47.2811 14.7108 47.3194 14.5306 47.3994C14.3503 47.4793 14.1904 47.5988 14.0626 47.749C13.7587 48.1839 13.6176 48.7119 13.6639 49.2404C13.6135 49.7895 13.7523 50.3394 14.0572 50.7988C14.1812 50.9486 14.3379 51.0681 14.5151 51.1481C14.6924 51.2281 14.8856 51.2666 15.08 51.2606C15.3739 51.2665 15.6592 51.1612 15.8788 50.9658C16.1318 50.7135 16.2997 50.3885 16.359 50.0362" fill="white"/>
<path d="M18.1799 49.3043C18.1651 48.7982 18.2547 48.2944 18.4431 47.8244C18.5748 47.5313 18.7571 47.2638 18.9818 47.034C19.192 46.8118 19.4455 46.635 19.7267 46.5146C20.1215 46.3547 20.5445 46.2762 20.9704 46.2837C21.3473 46.2672 21.7236 46.3296 22.075 46.4669C22.4265 46.6042 22.7454 46.8133 23.0113 47.081C23.5059 47.7048 23.7754 48.4773 23.7764 49.2734C23.7774 50.0694 23.5097 50.8426 23.0167 51.4676C22.7518 51.7331 22.4344 51.9403 22.0848 52.076C21.7352 52.2117 21.3612 52.2729 20.9865 52.2557C20.6097 52.2744 20.2331 52.2143 19.8807 52.0793C19.5284 51.9442 19.2081 51.7372 18.9402 51.4715C18.6771 51.179 18.4746 50.8373 18.3444 50.4661C18.2141 50.095 18.1587 49.7016 18.1814 49.3089M19.3812 49.2697C19.3424 49.8035 19.5037 50.3327 19.8337 50.7542C19.979 50.9134 20.1558 51.0407 20.353 51.1278C20.5501 51.215 20.7632 51.2602 20.9788 51.2606C21.1943 51.2609 21.4076 51.2164 21.605 51.1299C21.8024 51.0434 21.9797 50.9168 22.1255 50.7581C22.4542 50.3282 22.6131 49.7923 22.5719 49.2527C22.6132 48.7234 22.4587 48.1974 22.1378 47.7744C21.9874 47.6193 21.8073 47.4962 21.6082 47.4122C21.4092 47.3283 21.1953 47.2853 20.9792 47.2858C20.7632 47.2863 20.5495 47.3303 20.3508 47.4152C20.1522 47.5 19.9726 47.624 19.8229 47.7798C19.4979 48.2051 19.3409 48.7352 19.382 49.2689" fill="white"/>
<path d="M24.7552 52.1602V46.4353H25.9203V51.1852H28.8163V52.1602H24.7552Z" fill="white"/>
<path d="M29.6382 52.1572V46.3853H33.9148V47.3611H30.8019V48.6402H33.6947V49.6175H30.8019V51.1883H34.0241V52.1572H29.6382Z" fill="white"/>
<path d="M37.2803 46.3853H39.4089C39.7782 46.3732 40.1475 46.4099 40.5071 46.4945C40.8393 46.5905 41.1394 46.7742 41.376 47.0263C41.6254 47.2937 41.8134 47.6123 41.927 47.9598C42.063 48.4012 42.1265 48.8618 42.1148 49.3235C42.1242 49.7409 42.0644 50.157 41.9378 50.5549C41.8161 50.9382 41.6051 51.2872 41.3221 51.573C41.089 51.7883 40.8089 51.9464 40.5041 52.0348C40.1682 52.1262 39.8207 52.1671 39.4728 52.1564H37.2803V46.3853ZM38.4447 47.3603V51.1813H39.3143C39.5503 51.1889 39.7864 51.1706 40.0185 51.1267C40.1925 51.086 40.354 51.0033 40.4887 50.8858C40.6384 50.7303 40.7445 50.5381 40.7965 50.3286C40.8854 49.984 40.925 49.6285 40.9143 49.2728C40.9267 48.9263 40.887 48.58 40.7965 48.2454C40.734 48.0345 40.62 47.8425 40.4648 47.6866C40.3137 47.5481 40.1273 47.4541 39.9261 47.415C39.6096 47.3678 39.2894 47.3495 38.9695 47.3603H38.4447Z" fill="white"/>
<path d="M42.9905 52.1572V46.3853H47.2671V47.3611H44.1549V48.6402H47.0509V49.6175H44.1549V51.1883H47.3772V52.1572H42.9905Z" fill="white"/>
<path d="M48.086 50.2793L49.2188 50.1685C49.2558 50.4879 49.4027 50.7844 49.6344 51.0074C49.8746 51.1967 50.1756 51.2919 50.4809 51.2752C50.7822 51.2971 51.0817 51.213 51.3275 51.0374C51.4146 50.9726 51.4856 50.8886 51.5351 50.792C51.5846 50.6954 51.6113 50.5887 51.613 50.4802C51.6162 50.3535 51.5739 50.2298 51.4937 50.1316C51.3776 50.0139 51.2332 49.928 51.0743 49.8822C50.9383 49.835 50.6277 49.7511 50.1423 49.6306C49.6664 49.5432 49.2168 49.3481 48.8279 49.0603C48.6596 48.9177 48.5247 48.7399 48.4329 48.5393C48.3412 48.3387 48.2947 48.1203 48.2969 47.8998C48.2963 47.6061 48.3831 47.3189 48.5462 47.0748C48.7216 46.8119 48.9725 46.6083 49.2658 46.4907C49.6269 46.3486 50.013 46.2806 50.4009 46.2906C50.9854 46.2473 51.5658 46.4165 52.0355 46.7669C52.217 46.9252 52.3624 47.1207 52.4618 47.34C52.5613 47.5593 52.6125 47.7975 52.6119 48.0383L51.4468 48.0891C51.4234 47.8433 51.3089 47.6152 51.1259 47.4496C50.9083 47.3045 50.6486 47.236 50.3878 47.2549C50.1077 47.2389 49.8297 47.3119 49.5936 47.4634C49.5353 47.503 49.4878 47.5565 49.4555 47.6192C49.4232 47.6818 49.4072 47.7516 49.4089 47.822C49.4091 47.8898 49.4248 47.9565 49.4548 48.0172C49.4849 48.0779 49.5284 48.1309 49.5821 48.1722C49.9118 48.3656 50.2745 48.496 50.6518 48.557C51.0855 48.6452 51.5073 48.7842 51.9085 48.971C52.1703 49.1052 52.3908 49.3079 52.5465 49.5575C52.708 49.8361 52.788 50.1545 52.7774 50.4763C52.778 50.8062 52.6822 51.1291 52.5019 51.4052C52.3162 51.6963 52.0438 51.9216 51.7231 52.0494C51.3224 52.2008 50.896 52.2722 50.4679 52.2595C49.8652 52.2994 49.2684 52.1198 48.7879 51.7539C48.3741 51.3706 48.1234 50.843 48.0875 50.2801" fill="white"/>
<path d="M55.915 52.1572V46.3853H57.6582L58.7048 50.3202L59.7399 46.3853H61.4876V52.1572H60.4048V47.6166L59.2597 52.1572H58.1384L56.9971 47.6166V52.1572H55.915Z" fill="white"/>
<path d="M62.6835 52.1556V46.3837H66.9601V47.3595H63.8479V48.6386H66.7454V49.6106H63.8479V51.1813H67.0702V52.1525L62.6835 52.1556ZM64.1627 46.0566L64.706 44.8807H65.945L64.863 46.0574L64.1627 46.0566Z" fill="white"/>
<path d="M69.2919 52.1572V47.3642H67.5804V46.3853H72.164V47.3611H70.4571V52.1572H69.2919Z" fill="white"/>
<path d="M74.0535 46.3883H72.8883V52.1564H74.0535V46.3883Z" fill="white"/>
<path d="M75.1554 52.1572V46.3853H79.432V47.3611H76.319V48.6402H79.215V49.6175H76.319V51.1883H79.5413V52.1572H75.1554Z" fill="white"/>
<path d="M80.5494 52.1572V46.3853H83.0006C83.4536 46.364 83.9071 46.4159 84.3435 46.5392C84.623 46.6431 84.8593 46.838 85.0146 47.0925C85.1844 47.3648 85.2718 47.6805 85.2662 48.0014C85.28 48.3951 85.1423 48.779 84.8814 49.0742C84.5761 49.3809 84.1721 49.5698 83.7409 49.6075C83.9712 49.7373 84.1812 49.9001 84.3643 50.0908C84.6119 50.3831 84.8338 50.6962 85.0277 51.0266L85.7357 52.1572H84.3427L83.5039 50.9012C83.3172 50.606 83.1115 50.3232 82.8882 50.0546C82.7927 49.9472 82.6725 49.8645 82.538 49.8138C82.3473 49.7622 82.1498 49.7404 81.9524 49.7491H81.7161V52.1572H80.5494ZM81.7138 48.8287H82.575C82.9257 48.8467 83.2772 48.8232 83.6224 48.7587C83.7554 48.7157 83.8702 48.6295 83.9487 48.5139C84.031 48.3854 84.0721 48.2348 84.0664 48.0822C84.0748 47.9119 84.02 47.7444 83.9125 47.612C83.7981 47.4864 83.6425 47.4062 83.4739 47.3857C83.38 47.3734 83.096 47.3657 82.6273 47.3657H81.7138V48.8287Z" fill="white"/>
<path d="M86.0697 50.2794L87.2026 50.1686C87.2395 50.4879 87.3865 50.7845 87.6181 51.0074C87.8583 51.1967 88.1593 51.2919 88.4647 51.2752C88.766 51.2972 89.0654 51.213 89.3112 51.0374C89.3983 50.9726 89.4693 50.8887 89.5188 50.7921C89.5683 50.6955 89.595 50.5888 89.5967 50.4802C89.5999 50.3535 89.5576 50.2298 89.4775 50.1316C89.3613 50.0139 89.2169 49.9281 89.058 49.8823C88.9221 49.8351 88.6114 49.7512 88.1261 49.6306C87.6502 49.5432 87.2006 49.3482 86.8116 49.0604C86.6433 48.9178 86.5084 48.7399 86.4167 48.5393C86.3249 48.3387 86.2784 48.1204 86.2806 47.8998C86.2782 47.6059 86.3634 47.3179 86.5253 47.0725C86.7008 46.8097 86.9516 46.606 87.2449 46.4884C87.606 46.3464 87.9921 46.2783 88.38 46.2883C88.9645 46.2451 89.5449 46.4142 90.0146 46.7647C90.1961 46.923 90.3415 47.1184 90.4409 47.3378C90.5404 47.5571 90.5916 47.7952 90.591 48.036L89.4259 48.0868C89.4024 47.8411 89.288 47.613 89.105 47.4473C88.8874 47.3023 88.6277 47.2337 88.3669 47.2526C88.0868 47.2366 87.8088 47.3096 87.5727 47.4612C87.5144 47.5007 87.4669 47.5542 87.4346 47.6169C87.4024 47.6796 87.3863 47.7493 87.388 47.8198C87.3882 47.8875 87.4039 47.9543 87.434 48.015C87.464 48.0757 87.5075 48.1287 87.5612 48.1699C87.8909 48.3633 88.2536 48.4938 88.6309 48.5547C89.0646 48.643 89.4864 48.7819 89.8876 48.9688C90.1494 49.1029 90.3699 49.3056 90.5256 49.5552C90.6871 49.8338 90.7671 50.1522 90.7565 50.4741C90.7571 50.8039 90.6614 51.1268 90.481 51.403C90.2953 51.694 90.0229 51.9193 89.7022 52.0471C89.3015 52.1986 88.8751 52.2699 88.447 52.2572C87.8443 52.2971 87.2475 52.1175 86.767 51.7516C86.3532 51.3683 86.1025 50.8407 86.0667 50.2778" fill="white"/>
<path d="M93.9911 46.3853H96.1198C96.489 46.3732 96.8583 46.4099 97.218 46.4945C97.5501 46.5905 97.8502 46.7742 98.0868 47.0263C98.3362 47.2937 98.5242 47.6123 98.6379 47.9598C98.7739 48.4012 98.8373 48.8618 98.8256 49.3235C98.835 49.7409 98.7752 50.157 98.6486 50.5549C98.5269 50.9382 98.3159 51.2872 98.033 51.573C97.7998 51.7883 97.5197 51.9464 97.2149 52.0348C96.8791 52.1262 96.5315 52.1671 96.1836 52.1564H93.9926L93.9911 46.3853ZM95.1555 47.3603V51.1813H96.0251C96.2611 51.1889 96.4973 51.1706 96.7293 51.1267C96.9033 51.086 97.0648 51.0033 97.1995 50.8858C97.3492 50.7303 97.4553 50.5381 97.5073 50.3286C97.5962 49.984 97.6358 49.6285 97.6251 49.2728C97.6375 48.9263 97.5979 48.58 97.5073 48.2454C97.4448 48.0345 97.3308 47.8425 97.1756 47.6866C97.0246 47.5481 96.8381 47.4541 96.6369 47.415C96.3204 47.3678 96.0002 47.3495 95.6803 47.3603H95.1555Z" fill="white"/>
<path d="M99.7814 46.3853H100.947V49.509C100.937 49.8311 100.951 50.1534 100.99 50.4733C101.034 50.7004 101.16 50.9031 101.345 51.042C101.571 51.1966 101.842 51.2721 102.115 51.2568C102.38 51.276 102.644 51.2044 102.863 51.0536C103.023 50.932 103.131 50.7544 103.165 50.5564C103.207 50.2317 103.225 49.9042 103.217 49.5768V46.3853H104.382V49.4175C104.397 49.9085 104.365 50.3999 104.287 50.8851C104.234 51.152 104.114 51.401 103.939 51.6092C103.753 51.8179 103.52 51.9791 103.26 52.0794C102.905 52.2082 102.529 52.2675 102.152 52.2541C101.725 52.2749 101.298 52.2098 100.897 52.0625C100.637 51.953 100.406 51.7835 100.223 51.5677C100.067 51.3824 99.9551 51.1636 99.8969 50.9282C99.8071 50.4462 99.7687 49.956 99.7822 49.4659L99.7814 46.3853Z" fill="white"/>
<path d="M107.836 46.3853H109.965C110.334 46.3732 110.703 46.4099 111.063 46.4945C111.395 46.5905 111.695 46.7742 111.932 47.0263C112.181 47.2937 112.369 47.6123 112.483 47.9598C112.619 48.4012 112.683 48.8618 112.671 49.3235C112.681 49.7409 112.621 50.157 112.494 50.5549C112.373 50.9382 112.162 51.2872 111.879 51.573C111.645 51.7884 111.365 51.9465 111.061 52.0348C110.725 52.1262 110.377 52.1671 110.029 52.1564H107.838L107.836 46.3853ZM109 47.3603V51.1813H109.87C110.106 51.1889 110.342 51.1706 110.574 51.1267C110.748 51.086 110.91 51.0033 111.044 50.8858C111.194 50.7303 111.3 50.5381 111.352 50.3286C111.441 49.984 111.481 49.6285 111.47 49.2728C111.482 48.9263 111.443 48.58 111.352 48.2454C111.29 48.0345 111.176 47.8425 111.02 47.6866C110.869 47.5481 110.683 47.4541 110.482 47.415C110.165 47.3678 109.845 47.3495 109.525 47.3603H109Z" fill="white"/>
<path d="M114.764 46.3883H113.599V52.1564H114.764V46.3883Z" fill="white"/>
<path d="M118.549 50.0362V49.0649H121.06V51.3622C120.75 51.6377 120.39 51.8498 119.998 51.9863C119.551 52.1632 119.074 52.2546 118.592 52.2556C118.043 52.2691 117.499 52.1382 117.015 51.8762C116.573 51.6294 116.219 51.2495 116.003 50.7904C115.776 50.3094 115.661 49.7832 115.666 49.2512C115.655 48.6943 115.785 48.1437 116.044 47.6504C116.291 47.1854 116.677 46.8088 117.149 46.573C117.579 46.3691 118.053 46.2709 118.529 46.2867C119.123 46.2517 119.711 46.4099 120.207 46.7377C120.612 47.0415 120.89 47.4855 120.985 47.9829L119.831 48.1992C119.758 47.9293 119.595 47.6924 119.369 47.5281C119.123 47.3575 118.828 47.2714 118.528 47.2826C118.303 47.2718 118.078 47.3093 117.869 47.3927C117.659 47.4761 117.47 47.6033 117.314 47.7659C116.986 48.1696 116.825 48.6833 116.864 49.2019C116.822 49.7536 116.984 50.3015 117.32 50.7411C117.469 50.9099 117.654 51.0435 117.86 51.1324C118.067 51.2213 118.291 51.2632 118.516 51.2552C118.768 51.2536 119.017 51.2048 119.25 51.1113C119.477 51.0269 119.689 50.9097 119.881 50.7634V50.0315L118.549 50.0362Z" fill="white"/>
<path d="M123.239 46.3883H122.074V52.1564H123.239V46.3883Z" fill="white"/>
<path d="M125.639 52.1572V47.3642H123.927V46.3853H128.511V47.3611H126.803V52.1572H125.639Z" fill="white"/>
<path d="M134.4 52.1572H133.133L132.629 50.8489H130.32L129.844 52.1572H128.612L130.858 46.3853H132.089L134.4 52.1572ZM132.256 49.8754L131.461 47.7344L130.682 49.8746L132.256 49.8754Z" fill="white"/>
<path d="M135.048 52.1602V46.4353H136.214V51.1852H139.11V52.1602H135.048Z" fill="white"/>
</g>
</svg>
